PathFileType	4	(X/Y/Z)	Patient4_TMGait_0pt7_02_right_10.trc.trc
DataRate	CameraRate	NumFrames	NumMarkers	Units	OrigDataRate	OrigDataStartFrame	OrigNumFrames
84.337349397590	84.337349397590	6	33	mm	84.337349397590	18	       141
Frame#	Time	Sacral			L.Shoulder			Chest			R.Shoulder			Neck			R.ASIS			L.ASIS			R.Thigh.Superior			R.Thigh.Lateral			R.Thigh.Inferior			R.Patella			L.Thigh.Superior			L.Thigh.Lateral			L.Thigh.Inferior			L.Patella			L.Shank.Superior			L.Shank.Lateral			L.Shank.Inferior			R.Shank.Superior			R.Shank.Lateral			R.Shank.Inferior			R.Heel			R.Midfoot.Superior			R.Midfoot.Lateral			R.Toe			L.Heel			L.Midfoot.Lateral			L.Midfoot.Superior			L.Toe			L.Elbow			L.Wrist			R.Elbow			R.Wrist			
		X1	Y1	Z1	X2	Y2	Z2	X3	Y3	Z3	X4	Y4	Z4	X5	Y5	Z5	X6	Y6	Z6	X7	Y7	Z7	X8	Y8	Z8	X9	Y9	Z9	X10	Y10	Z10	X11	Y11	Z11	X12	Y12	Z12	X13	Y13	Z13	X14	Y14	Z14	X15	Y15	Z15	X16	Y16	Z16	X17	Y17	Z17	X18	Y18	Z18	X19	Y19	Z19	X20	Y20	Z20	X21	Y21	Z21	X22	Y22	Z22	X23	Y23	Z23	X24	Y24	Z24	X25	Y25	Z25	X26	Y26	Z26	X27	Y27	Z27	X28	Y28	Z28	X29	Y29	Z29	X30	Y30	Z30	X31	Y31	Z31	X32	Y32	Z32	X33	Y33	Z33	

18	10.671571428571	773.029649721321	1004.259350296095	433.793076320373	977.462202317029	1423.627101445877	246.908863757102	1070.380489732802	1352.707034802144	412.910076393215	982.374546561313	1440.509414044022	579.355907852215	974.849867942122	1486.091516169489	396.661106910802	994.215799292713	937.577485866700	561.316401339835	992.308268157227	956.779124384979	286.116001249844	1077.493179544156	779.460849381124	538.049970484210	1044.043598472786	656.047440343561	617.891627939828	1139.080981643349	625.170626676106	542.273394091342	1179.484920009861	538.621832756248	565.671786742391	991.067727455712	731.728647464145	313.769712297569	871.880604792107	639.723286817740	250.366665879048	930.496067307260	544.841928489186	313.590804940919	916.572689780568	480.344231723887	322.405963562175	885.293212296278	415.726538361594	315.009622878114	787.646910366962	306.439968664907	266.213202223794	834.828992583822	193.639839124082	339.960817331587	1156.255575449661	447.798331433581	574.722722269732	1092.356997094561	338.886698168136	636.857173071710	1157.356805375945	247.581776232088	589.857699933403	1054.788273865008	65.159565609081	560.346459170486	1218.425995993953	133.896665798867	606.401414721329	1136.632017850071	59.609595512893	635.716678482315	1340.122409765668	93.113175683669	636.362994151298	701.795331702991	39.487985569234	386.816289885769	774.825374829730	34.988010383124	305.625866090530	858.510350999049	95.911016628840	330.827102588447	986.534752620211	42.883703177516	302.381117869902	1040.423079812245	1097.394204153590	102.257633888567	1286.836172600650	1032.925783142959	141.054148808965	867.249480931016	1128.948981939479	729.414478676800	871.668799362473	868.488622576341	769.313794444906	
19	10.683428571429	774.891447838865	1002.122882172936	435.353101390487	978.025605055257	1422.193364813105	249.222978679942	1071.306932260131	1350.917531383644	414.772923179751	983.380345500838	1438.235749778846	581.605843995300	975.610861334646	1484.128085859014	399.024839932597	996.399504938305	934.940616988569	562.439781573208	993.878340595597	955.068782353359	287.451065849910	1077.432881893924	774.330273501255	539.205407057803	1041.179251476752	650.873311562167	617.990425780455	1136.070805299055	619.308487790186	542.448334990279	1175.436570588709	534.192120024547	564.806825182324	989.416205121434	729.510679865610	314.464148779513	868.795607821984	639.132572961295	250.685651333937	925.836723303816	543.415186022656	314.084366449187	911.369984111045	479.024915862246	322.590932603876	879.330237744487	414.947756271182	315.224438129679	780.763234819652	306.426333968655	266.358078466564	827.070104833471	193.190612713303	340.041832888212	1154.738260165167	443.566713741448	573.849156159353	1093.767180482980	332.352583593617	634.977478812927	1162.231120861652	243.314618518715	587.976047118353	1065.640306029800	57.845148081809	557.414165387755	1227.301919024138	130.991435190845	603.671784069527	1147.502107479320	54.624067741728	632.941942064619	1350.311053923231	93.689846586880	634.038428114984	693.364395222789	39.289529737952	386.816919897755	766.393869707556	34.876139497795	305.636225523040	850.026339549109	95.808572770725	330.904212943737	978.114390879378	42.821667845407	302.396884897447	1042.717405719105	1097.565533234488	102.807446645997	1291.026766631493	1045.032320429642	143.225284972108	860.914938421443	1130.747628653452	731.873840473495	854.957567816788	870.682861231758	772.778183948097	
20	10.695285714286	776.892264109881	999.821170568275	437.283424130508	978.532901655154	1420.620070655006	251.728993854585	1072.334263917207	1349.066919796366	416.803216979148	984.509740945876	1435.878761643103	584.049111025404	976.439722116042	1482.072898161657	401.592519581523	998.844762300712	932.173046266926	563.672031255260	995.557399799385	953.225807003530	288.973970918828	1077.785933979400	769.170028746787	540.499650503995	1038.578880786054	645.679686578534	617.942220008697	1133.431340140414	613.540211964150	542.596542578113	1171.543311166965	529.523892410560	563.777311421624	988.367415563430	727.281027327982	315.197685461086	866.466573105982	638.328924817531	251.246801408059	922.149276703542	541.858787313929	314.761632136454	907.157774839478	477.444093618031	323.032978836550	874.243503628955	413.836611580814	315.672721273364	774.512596258592	306.343442264986	266.668413997249	819.577007997764	192.548942566811	340.221092194829	1152.891529768113	439.039300865553	572.735136377612	1094.004754116998	326.044310255904	632.636838303853	1165.186076100782	238.918070060111	585.637588304741	1072.985876328820	51.870850332319	554.023581483513	1233.316462471595	127.542300979485	600.290154574492	1154.759782379299	50.196152546344	629.664063353660	1357.083413140491	92.342209999271	630.959852181912	684.920926774314	39.047864050945	386.800032606459	757.976148895867	34.730468460533	305.641143903737	841.561228544930	95.676739878659	331.013368922927	969.732090790914	42.702354958620	302.412368847583	1044.405227220487	1097.304128315580	103.686812266274	1294.006553143340	1056.225078206872	145.493675787441	854.781888044551	1132.530868808331	734.218046858257	839.679565248772	873.170590215316	775.445465057240	
21	10.707142857143	778.980431562048	997.443301138451	439.562045276304	979.016834513970	1418.962163867972	254.418819550233	1073.476185314163	1347.205813286189	419.006387333328	985.783488465571	1433.506791991991	586.683586268261	977.370079258100	1479.999313772694	404.362300129432	1001.487475929304	929.370308882419	565.016245779648	997.308232157834	951.314040573973	290.671298809712	1078.570940691443	764.169838121042	541.914419402705	1036.353524211717	640.658369363879	617.740691920207	1131.281808307417	608.096683346229	542.712570609250	1167.984984077958	524.819178844747	562.584771235689	987.992073111148	725.086287846909	315.994586173254	864.970364186530	637.313486450807	252.099614240175	919.554270024701	540.176015485096	315.646038996573	904.051779552720	475.582918974195	323.763416462255	870.131045906205	412.373498198823	316.384232920097	768.971841381175	306.213532221935	267.178032360713	812.391932226417	191.729472912655	340.514358738171	1150.876186648935	434.396044802363	571.408157577899	1093.261921440961	320.128712130418	630.004640111338	1166.347522929226	234.473676040652	582.965865443255	1076.812429251845	47.228740284457	550.443567610692	1236.573491592713	123.606898130819	596.440972527014	1158.467743026979	46.367085945208	626.138323137527	1360.608010903114	89.107920151998	627.273446070750	676.468071788392	38.815841999554	386.759319732989	749.579922536046	34.567720628444	305.641845198505	833.146269046758	95.524079232912	331.144828143541	961.400929478442	42.517524089766	302.424719038173	1045.467880231094	1096.625366124969	104.907447345314	1295.840274678078	1066.352617296378	147.835678872650	848.997064461513	1134.252233670496	736.420153082499	825.821261755879	875.767870468085	777.446821713986	
22	10.719000000000	781.101645976351	995.096537041051	442.141807236290	979.527433837032	1417.292315338015	257.279474866096	1074.748091158282	1345.392531767473	421.384877439899	987.227727278043	1431.198536674998	589.501681072301	978.443340973971	1477.993789399245	407.328869626034	1004.251050000669	926.650052446179	566.480378561560	999.085867097359	949.417176220803	292.518509484129	1079.785348080644	759.527701773484	543.428964992966	1034.614101319979	636.018095460780	617.418256720060	1129.716667403254	603.199890678526	542.802158524562	1164.925211134665	520.290502996336	561.261898090330	988.317277077901	722.985028632535	316.887673163160	864.348470964714	636.104541621298	253.277254946578	918.139598342157	538.386199883833	316.744235822309	902.142335313685	473.438710132325	324.780382587649	867.059141118363	410.569742338881	317.361288644794	764.191366162216	306.084617074452	267.907338787804	805.555622282681	190.777632230386	340.921437053276	1148.857553409962	429.840501468318	569.931741909199	1091.796673428095	314.784690540983	627.308221682879	1165.928127407501	230.107166442564	580.125344181935	1077.319204450906	43.856769554774	546.960919180852	1237.289842498456	119.335859993581	592.365962146533	1158.886003145155	43.178862231553	622.645254842333	1361.190057427524	84.253596419370	623.198467360616	668.015761224871	38.685639302355	386.688526353281	741.215449027292	34.423410473583	305.639235187550	824.824831707691	95.365490627441	331.279504227559	953.133245909808	42.262388568476	302.429955947168	1045.878843830303	1095.564032740960	106.486561242406	1296.599546445030	1075.280247840329	150.230447780334	843.720368159721	1135.861011602062	738.458871917133	813.381763667872	878.323911176956	778.905719687825	
23	10.730857142857	783.203048595707	992.898720814513	444.955615272694	980.127889477076	1415.696700867059	260.291067115234	1076.163499875043	1343.690632487139	423.935958772823	988.867641938231	1429.038481587993	592.487980704612	979.703032163438	1476.150457706360	410.479575062203	1007.051482896527	924.143573080289	568.078342221547	1000.837935608607	947.632561066996	294.482069391367	1081.404832513649	755.439914175472	545.020554338713	1033.467783704886	631.972010834221	617.049752714268	1128.796550569027	599.044951224488	542.885950863758	1162.493763092568	516.144394456158	559.883588224249	989.326710704269	721.047418506705	317.914621120651	864.610634579809	634.737513798580	254.790464088738	917.962790576323	536.526797087184	318.042408956909	901.496804639320	471.029551793392	326.043163257345	865.065983195315	408.470072001498	318.573734107327	760.200069719255	306.032179062886	268.858000308637	799.112847612534	189.771319925364	341.422289964788	1146.987320045566	425.580945401706	568.407111412536	1089.897386742490	310.184001975186	624.809613828821	1164.198899572415	225.973647505890	577.306437741440	1074.891973619038	41.636760063065	543.836656603623	1235.762746541268	114.950971344554	588.339619596644	1156.437137562985	40.655918106443	619.451284614676	1359.232988553986	78.246298986134	619.015563607659	659.585242572781	38.794355404175	386.581264694450	732.897111300051	34.356986241418	305.632943419059	816.653293410247	95.222868859482	331.388816314415	944.938801826890	41.935936956465	302.423563072890	1045.604424882121	1094.173061454541	108.445491323172	1296.358893183546	1082.892234938271	152.661054993952	839.114453185504	1137.304727116798	740.321550717014	802.388167346447	880.716220303659	779.928344660700	
